# Blender v2.78 (sub 0) OBJ File: 'terrain2.blend'
# www.blender.org
mtllib ocean.mtl
o sea.000_sea.002
v -1007.999695 0.000000 982.000305
v 992.000305 0.000000 981.999695
v -1008.000305 0.000000 -1017.999695
v 991.999695 0.000000 -1018.000305
v -119.157967 0.000000 -133.157898
v -119.157959 0.000000 -129.157898
v -119.157959 0.000000 -129.157898
v -134.157883 0.000000 107.157974
v 103.157898 0.000000 -129.157959
v 103.157890 0.000000 -133.157959
v 103.157898 0.000000 -129.157959
v 115.157967 0.000000 93.157890
v -1007.999695 0.000000 982.000305
v 992.000305 0.000000 981.999695
v -1007.999695 0.000000 982.000305
v 992.000305 0.000000 981.999695
v -1007.999695 0.000000 982.000305
v 992.000305 0.000000 981.999695
v -1007.999695 0.000000 982.000305
v 992.000305 0.000000 981.999695
v -1007.999695 0.000000 982.000305
v 992.000305 0.000000 981.999695
v -1007.999695 0.000000 1082.000244
v 992.000305 0.000000 1081.999756
v 1092.000244 0.000000 981.999695
v 1091.999756 0.000000 -1018.000305
v 1092.000244 0.000000 981.999695
v 1092.000366 0.000000 1081.999634
v -1008.000305 0.000000 -1017.999695
v 991.999695 0.000000 -1018.000305
v 1092.000244 0.000000 981.999695
v 1091.999756 0.000000 -1018.000305
v 1092.000244 0.000000 981.999695
v 1092.000366 0.000000 1081.999634
v -1008.000305 0.000000 -1117.999756
v 991.999695 0.000000 -1118.000244
v 1092.000244 0.000000 881.999695
v 1091.999634 0.000000 -1118.000366
v 1092.000244 0.000000 881.999695
v 1092.000244 0.000000 981.999695
v -1007.999695 0.000000 982.000305
v -1008.000305 0.000000 -1017.999695
v -1008.000305 0.000000 -1017.999695
v -1008.000305 0.000000 -1117.999756
v -1107.999756 0.000000 982.000305
v -1108.000244 0.000000 -1017.999695
v -1108.000244 0.000000 -1017.999695
v -1108.000366 0.000000 -1117.999634
v -1107.999756 0.000000 982.000305
v -1107.999634 0.000000 1082.000366
vn 0.0000 1.0000 0.0000
vn 0.0000 0.0000 1.0000
usemtl None
s off
f 2//1 8//1 1//1
f 10//1 4//1 5//1
f 2//1 12//1 8//1
f 8//2 7//2 6//2
f 8//1 6//1 3//1
f 3//1 1//1 8//1
f 12//1 2//1 4//1
f 10//2 9//2 11//2
f 11//1 12//1 4//1
f 3//1 6//1 5//1
f 10//1 11//1 4//1
f 3//1 5//1 4//1
f 2//2 13//2 14//2
f 14//2 15//2 16//2
f 16//2 17//2 18//2
f 18//2 19//2 20//2
f 20//2 21//2 22//2
f 21//1 24//1 22//1
f 24//1 27//1 22//1
f 2//1 26//1 4//1
f 4//2 32//2 30//2
f 26//2 31//2 32//2
f 3//2 30//2 29//2
f 27//2 34//2 33//2
f 33//2 40//2 39//2
f 30//1 35//1 29//1
f 32//1 36//1 30//1
f 32//2 37//2 38//2
f 29//2 44//2 43//2
f 1//2 42//2 41//2
f 44//1 47//1 43//1
f 42//1 45//1 41//1
f 21//1 50//1 23//1
f 2//2 1//2 13//2
f 14//2 13//2 15//2
f 16//2 15//2 17//2
f 18//2 17//2 19//2
f 20//2 19//2 21//2
f 21//1 23//1 24//1
f 24//1 28//1 27//1
f 2//1 25//1 26//1
f 4//2 26//2 32//2
f 26//2 25//2 31//2
f 3//2 4//2 30//2
f 27//2 28//2 34//2
f 33//2 34//2 40//2
f 30//1 36//1 35//1
f 32//1 38//1 36//1
f 32//1 31//1 37//1
f 29//2 35//2 44//2
f 1//2 3//2 42//2
f 44//1 48//1 47//1
f 42//1 46//1 45//1
f 21//1 49//1 50//1
