# Blender v2.78 (sub 0) OBJ File: 'Rock Pack.blend'
# www.blender.org
mtllib rock3.mtl
o Cube.002
v 0.697227 -0.942135 0.694168
v -0.797839 -0.952577 0.806803
v -0.843438 -0.909114 -0.654247
v 0.664552 -0.996384 -0.578853
v 0.502656 0.627435 0.982362
v -0.795385 0.823566 0.782412
v -0.949174 0.866408 -0.819639
v 0.645594 0.507317 -0.433038
v -0.057307 0.913333 0.921749
v -0.968976 -0.027532 0.973355
v -0.037489 -1.000543 0.828337
v 0.779729 -0.124887 0.889068
v -1.110138 1.109987 0.005279
v -1.122133 0.000138 -1.123114
v -0.928824 -1.002264 -0.028676
v -0.008739 1.015971 -0.931733
v 0.697903 -0.141546 -0.606865
v -0.011482 -1.003815 -0.765325
v 0.887376 0.876847 0.232595
v 0.776833 -1.038438 0.156204
v 0.000000 0.000000 1.122311
v -1.300067 -0.003644 0.005379
v -0.000062 0.000179 -1.121756
v 1.050731 -0.010976 0.075306
v 0.000000 -1.122311 0.000000
v 0.011064 1.135707 -0.004311
v -0.493426 0.913973 0.893573
v -0.931719 -0.518461 0.939262
v 0.429769 -0.986999 0.760605
v 0.634691 0.293620 0.980000
v -1.058355 1.063308 -0.526260
v -0.983989 -0.461915 -0.894663
v -0.875312 -0.981719 0.445902
v 0.426298 0.869555 -0.718177
v 0.712557 -0.562033 -0.567560
v -0.465193 -0.972368 -0.733942
v 0.594253 0.751498 0.609703
v 0.713517 -1.044721 -0.280521
v 0.253537 0.791225 1.002792
v -0.911980 0.426947 0.915245
v -0.515934 -1.022135 0.879331
v 0.760192 -0.523924 0.802799
v -1.076312 1.075818 0.510705
v -1.155666 0.507458 -1.058770
v -0.929277 -0.994794 -0.418113
v -0.521309 0.945778 -0.861915
v 0.673058 0.191088 -0.565132
v 0.435781 -1.008180 -0.736446
v 0.824963 0.734889 -0.240978
v 0.763295 -1.023964 0.533889
v -0.009720 -0.520946 1.027263
v -0.002902 0.537270 1.094855
v 0.478741 -0.028161 1.057926
v -0.561169 0.000027 1.122287
v -1.122272 -0.556166 0.000867
v -1.311442 0.574192 0.001505
v -1.165596 0.000301 0.573279
v -1.203217 0.002006 -0.574775
v -0.013997 -0.505895 -0.950385
v -0.023359 0.478527 -0.991578
v -0.561331 0.000490 -1.123051
v 0.471882 -0.040047 -0.976609
v 1.002646 -0.548979 0.104470
v 1.074719 0.507551 0.132320
v 0.812293 -0.094363 -0.352952
v 1.059582 -0.050924 0.536121
v -0.000000 -1.122311 -0.561155
v 0.000000 -1.122311 0.561155
v 0.560251 -1.125791 0.004284
v -0.561155 -1.122311 0.000000
v -0.026294 1.089673 0.553066
v 0.066710 1.222494 -0.612114
v 0.604617 1.171598 -0.010820
v -0.561155 1.122311 0.000000
v -0.539830 -0.528097 1.039133
v -1.096391 -0.543342 -0.528241
v 0.474812 -0.518544 -0.876697
v 0.933589 -0.542439 0.516732
v -0.560424 -1.120606 -0.557483
v -0.561271 1.120342 0.558850
v 0.481921 -0.513861 0.955910
v 0.437744 0.481335 1.053055
v -0.560830 0.546460 1.104803
v -1.085554 -0.540181 0.544705
v -1.175216 0.566809 0.580826
v -1.327756 0.635626 -0.658823
v -0.515570 -0.484697 -0.931553
v -0.546975 0.509284 -1.049718
v 0.426876 0.408981 -0.857330
v 0.821474 -0.575179 -0.339143
v 0.746472 0.287006 -0.342879
v 0.978270 0.462004 0.658014
v 0.484503 -1.101616 -0.513497
v 0.519890 -1.107049 0.542090
v -0.561155 -1.122311 0.561155
v 0.294924 0.884399 0.526915
v 0.573219 1.113360 -0.484143
v -0.579507 1.147528 -0.570661
vt 0.6100 0.1636
vt 0.6960 -0.0255
vt 0.6021 -0.0565
vt 0.3016 0.1568
vt 0.3436 -0.0062
vt 0.2649 -0.0443
vt 0.1925 0.1485
vt 0.2848 -0.0503
vt 0.2718 0.1678
vt 0.7015 0.1572
vt 0.6424 -0.0209
vt 0.6958 -0.0573
vt 0.3114 0.6562
vt 0.3436 0.7823
vt 0.3702 0.6138
vt 0.6875 0.6566
vt 0.6130 0.7609
vt 0.5759 0.6264
vt 0.4333 0.1668
vt 0.2868 -0.0409
vt 0.2694 0.1699
vt 0.2842 0.6133
vt 0.4301 0.3989
vt 0.2705 0.3863
vt 0.7341 0.5891
vt 0.6171 0.3989
vt 0.6170 0.6423
vt 0.8735 0.1511
vt 0.7251 -0.0385
vt 0.6922 0.1582
vt 0.6802 0.6514
vt 0.8720 0.3972
vt 0.6827 0.3990
vt 0.4785 0.6249
vt 0.3171 0.3997
vt 0.3452 0.6820
vt 0.4347 0.1735
vt 0.5851 -0.0343
vt 0.6019 0.1829
vt 0.4379 0.6120
vt 0.6172 0.3991
vt 0.6124 0.6257
vt 0.3139 0.4840
vt 0.4511 0.3810
vt 0.4113 0.5811
vt 0.2386 0.1426
vt 0.0735 -0.0638
vt 0.2190 -0.0666
vt 0.2398 0.5267
vt 0.1004 0.3940
vt 0.2432 0.3568
vt 0.6544 0.6047
vt 0.5774 0.3432
vt 0.6951 0.3762
vt 0.3126 0.4065
vt 0.3710 0.2124
vt 0.2967 0.1907
vt 0.6931 0.1749
vt 0.8738 0.4065
vt 0.8724 0.1570
vt 0.7251 0.7965
vt 0.8738 0.6565
vt 0.6867 0.6565
vt 0.6981 0.2752
vt 0.5665 0.4321
vt 0.5395 0.2936
vt 0.2869 0.1512
vt 0.1270 0.4016
vt 0.1291 0.1372
vt 0.3010 0.8781
vt 0.1255 0.6565
vt 0.3158 0.6647
vt 0.4426 -0.0469
vt 0.7407 0.1679
vt 1.0132 -0.0443
vt 0.8833 -0.0477
vt 1.0499 0.1568
vt 0.4238 0.1931
vt 0.4339 -0.0484
vt 0.2728 0.3810
vt 0.4301 0.3989
vt 0.3278 0.3358
vt 0.4178 0.1678
vt 0.8217 -0.0638
vt 0.8390 0.1543
vt 0.8487 0.3940
vt 0.3807 0.4117
vt 1.0596 0.6562
vt 1.0608 0.4065
vt 1.0132 0.8205
vt 0.6894 0.4183
vt -0.0588 0.4183
vt 0.8738 0.6565
vt 0.7035 0.8861
vt 0.1977 -0.0209
vt 0.1767 0.1654
vt 0.1701 0.3432
vt 0.2185 0.5297
vt 0.2625 0.6784
vt 0.3456 0.7513
vt 0.4310 0.6382
vt 0.4492 0.8058
vt 0.6952 0.7658
vt 0.5946 0.8060
vt 0.6048 -0.0255
vt 0.5607 0.1679
vt 0.5493 0.3866
vt 0.5687 0.5891
vt 0.8218 0.6514
vt 0.7035 0.8781
vt 0.8733 0.6547
vt 1.0654 0.3997
vt 1.0492 0.8726
vt 0.8720 0.8934
vt 0.3988 0.8294
vt 0.3452 0.9981
vt 0.7112 -0.0062
vt 0.7581 0.1931
vt 0.8041 0.3989
vt 0.8153 0.6249
vt 0.7465 0.7848
vt 0.6039 0.8202
vt 0.2878 0.5811
vt 0.2880 0.7862
vt 0.4330 0.8515
vt 0.2699 0.6249
vt 0.3649 0.7862
vt 0.3185 -0.0450
vt 0.3147 0.1485
vt 0.0907 0.1543
vt 0.2059 0.7263
vt 0.0814 0.6250
vt 0.8297 0.6250
vt 0.7962 0.7895
vt 0.1040 0.6047
vt 0.2320 0.7337
vt 0.3185 0.1105
vt 0.2190 0.0887
vt 0.9673 0.0887
vt 0.8217 0.0605
vt 1.0450 0.1907
vt 0.6958 0.0665
vt 0.6424 0.0959
vt 0.6202 0.2151
vt 0.6867 0.4065
vt 0.5977 0.4232
vt 0.6048 0.7620
vt 0.5807 0.6364
vt 0.6705 0.1418
vt 0.5463 0.1826
vt 0.7962 0.0112
vt -0.0501 0.2752
vt 0.1291 0.9208
vt 0.0480 0.7895
vt 0.2869 0.8949
vt 0.4078 0.9435
vt 0.2390 0.8949
vt 0.3296 0.3768
vt 0.4361 0.4104
vt 0.4129 0.6388
vt 0.2085 -0.0450
vt 0.6062 0.1654
vt 0.2649 0.8205
vt 0.7531 0.3866
vt 0.4999 0.3989
vt 0.5471 0.5297
vt 0.8833 0.8203
vt 0.1238 0.9011
vt -0.0608 0.6566
vt 0.8720 0.9011
vt 0.7889 0.8781
vt 1.0934 0.6820
vt 0.4785 0.9214
vt 0.6705 0.7337
vt 0.8774 0.1372
vn -0.1094 -0.2550 0.9607
vn -0.5645 -0.6205 0.5443
vn -0.0992 -0.6983 0.7089
vn -0.9170 -0.3264 -0.2292
vn -0.5101 -0.5765 -0.6384
vn -0.6834 -0.7032 -0.1960
vn 0.8375 -0.0740 -0.5414
vn 0.3041 -0.5847 -0.7521
vn 0.4984 -0.2151 -0.8398
vn 0.9002 -0.2770 0.3359
vn 0.5358 -0.5133 0.6703
vn 0.6749 -0.6783 0.2905
vn -0.1894 -0.9132 -0.3609
vn -0.1369 -0.5786 -0.8040
vn -0.0740 0.9418 0.3278
vn -0.4559 0.5089 0.7302
vn -0.2001 0.6955 0.6901
vn 0.0816 -0.2871 0.9544
vn 0.1780 -0.6568 0.7327
vn 0.2896 -0.2801 0.9152
vn 0.2888 0.1554 0.9447
vn 0.0636 -0.0638 0.9959
vn 0.2956 -0.0844 0.9515
vn -0.6363 0.2098 0.7423
vn -0.1810 -0.0313 0.9830
vn -0.2604 0.2701 0.9269
vn -0.9349 -0.3542 0.0216
vn -0.6883 -0.7150 0.1228
vn -0.9220 -0.3115 0.2299
vn -0.8625 0.1456 0.4845
vn -0.9908 -0.1320 0.0276
vn -0.9337 -0.0531 0.3541
vn -0.5713 0.2724 -0.7742
vn -0.9680 -0.1850 -0.1697
vn -0.9359 0.2492 -0.2487
vn 0.0531 -0.3241 -0.9445
vn -0.0816 -0.3887 -0.9177
vn 0.1880 0.2259 -0.9558
vn 0.0048 -0.1146 -0.9934
vn 0.0417 0.2915 -0.9557
vn 0.8688 0.1975 -0.4540
vn 0.5771 0.0222 -0.8164
vn 0.6026 0.2556 -0.7560
vn 0.9274 -0.1259 -0.3523
vn 0.7160 -0.6977 -0.0218
vn 0.7312 -0.6652 -0.1509
vn 0.8543 0.1211 -0.5054
vn 0.9558 -0.0334 -0.2919
vn 0.8963 0.0600 -0.4393
vn 0.7949 0.3371 0.5044
vn 0.6442 -0.1102 0.7569
vn 0.9420 -0.0897 0.3233
vn 0.0037 -0.9629 -0.2698
vn 0.2118 -0.9487 -0.2346
vn 0.1790 -0.9424 0.2824
vn 0.0067 -1.0000 -0.0020
vn 0.1956 -0.9806 -0.0139
vn -0.1704 -0.9853 0.0089
vn -0.1977 -0.9675 0.1574
vn 0.3325 0.8797 0.3398
vn 0.1094 0.7516 0.6504
vn 0.2545 0.6740 0.6935
vn 0.5885 0.6841 -0.4308
vn 0.0361 0.9889 0.1439
vn 0.3963 0.9104 0.1187
vn -0.5231 0.8039 -0.2829
vn -0.0381 0.9989 0.0251
vn -0.1591 0.9498 -0.2693
vn 0.0855 -0.6907 0.7181
vn -0.6399 -0.2599 0.7231
vn -0.6756 -0.7359 0.0441
vn -0.5641 -0.4567 -0.6879
vn -0.0170 -0.6345 -0.7727
vn 0.1438 -0.0258 -0.9893
vn 0.8743 0.0300 -0.4844
vn 0.9540 -0.2662 -0.1378
vn 0.2786 0.9230 0.2654
vn -0.5694 0.7022 0.4274
vn 0.6702 -0.2313 0.7052
vn 0.5349 0.0981 0.8392
vn 0.5014 0.5049 0.7026
vn 0.0379 0.2134 0.9762
vn -0.6696 0.0310 0.7420
vn -0.9872 0.1435 0.0700
vn -0.5844 0.8113 -0.0158
vn -0.3128 0.6443 -0.6979
vn -0.6066 -0.2028 -0.7687
vn -0.1460 0.5854 -0.7974
vn 0.6117 0.2968 -0.7333
vn 0.1521 0.5093 -0.8470
vn 0.8012 0.1234 -0.5855
vn 0.7017 -0.4873 -0.5198
vn 0.8395 0.2463 -0.4842
vn 0.9612 0.2112 -0.1771
vn 0.7012 0.6832 0.2039
vn 0.4042 0.8103 0.4242
vn 0.0282 -0.9743 0.2234
vn 0.1332 0.9503 -0.2814
usemtl texture\\rock3\\rock3.dds
s 1
f 75/1/1 2/2/2 41/3/3
f 76/4/4 3/5/5 45/6/6
f 35/7/7 48/8/8 77/9/9
f 78/10/10 1/11/11 50/12/12
f 79/13/13 3/14/5 36/15/14
f 80/16/15 6/17/16 27/18/17
f 51/19/18 29/20/19 81/21/20
f 82/22/21 21/23/22 53/24/23
f 40/25/24 54/26/25 83/27/26
f 55/28/27 33/29/28 84/30/29
f 85/31/30 22/32/31 57/33/32
f 44/34/33 58/35/34 86/36/35
f 59/37/36 36/38/14 87/39/37
f 60/40/38 61/41/39 88/42/40
f 47/43/41 62/44/42 89/45/43
f 90/46/44 20/47/45 38/48/46
f 91/49/47 24/50/48 65/51/49
f 92/52/50 12/53/51 66/54/52
f 67/55/53 48/56/8 93/57/54
f 94/58/55 25/59/56 69/60/57
f 33/61/28 70/62/58 95/63/59
f 96/64/60 9/65/61 39/66/62
f 97/67/63 26/68/64 73/69/65
f 31/70/66 74/71/67 98/72/68
f 75/1/1 11/73/69 51/19/18
f 21/23/22 75/1/1 51/19/18
f 54/26/25 28/74/70 75/1/1
f 55/28/27 45/75/6 15/76/71
f 22/32/31 76/77/4 55/28/27
f 58/35/34 32/78/72 76/4/4
f 77/9/9 18/79/73 59/37/36
f 62/80/42 59/37/36 23/81/74
f 17/82/75 77/83/9 62/44/42
f 78/10/10 20/84/45 63/85/76
f 66/54/52 63/85/76 24/86/48
f 12/53/51 78/10/10 66/54/52
f 67/55/53 36/15/14 18/87/73
f 25/59/56 79/88/13 67/89/53
f 70/62/58 45/90/6 79/88/13
f 71/91/77 27/18/17 9/65/61
f 74/71/67 71/92/77 26/68/64
f 74/93/67 43/94/78 80/16/15
f 81/21/20 1/95/11 42/96/79
f 12/97/51 81/21/20 42/96/79
f 53/24/23 51/19/18 81/21/20
f 30/98/80 53/24/23 12/97/51
f 5/99/81 82/22/21 30/98/80
f 39/100/62 52/101/82 82/22/21
f 52/101/82 54/26/25 21/23/22
f 9/102/61 83/27/26 52/101/82
f 6/103/16 83/27/26 27/104/17
f 84/30/29 2/105/2 28/106/70
f 57/33/32 28/106/70 10/107/83
f 22/32/31 84/30/29 57/33/32
f 40/108/24 57/33/32 10/107/83
f 6/103/16 85/109/30 40/25/24
f 43/110/78 56/111/84 85/31/30
f 56/111/84 58/112/34 22/32/31
f 31/113/66 56/111/84 13/114/85
f 7/115/86 86/116/35 31/70/66
f 87/39/37 3/117/5 32/118/72
f 61/41/39 32/118/72 14/119/87
f 23/81/74 87/39/37 61/41/39
f 88/42/40 14/119/87 44/120/33
f 7/121/86 88/42/40 44/120/33
f 46/122/88 60/40/38 88/42/40
f 89/123/43 23/81/74 60/40/38
f 34/124/89 60/40/38 16/125/90
f 8/126/91 89/45/43 34/127/89
f 90/46/44 4/128/92 35/129/7
f 65/51/49 35/129/7 17/82/75
f 65/51/49 63/130/76 90/46/44
f 47/43/41 65/51/49 17/82/75
f 8/126/91 91/49/47 47/43/41
f 49/131/93 64/132/94 91/49/47
f 64/133/94 66/54/52 24/86/48
f 19/134/95 92/52/50 64/133/94
f 5/99/81 92/135/50 37/136/96
f 93/57/54 4/137/92 38/138/46
f 69/60/57 38/139/46 20/140/45
f 25/59/56 93/141/54 69/60/57
f 94/58/55 20/140/45 50/142/12
f 1/143/11 94/58/55 50/142/12
f 29/144/19 68/145/97 94/58/55
f 95/63/59 25/59/56 68/145/97
f 11/146/69 95/63/59 68/145/97
f 2/147/2 95/63/59 41/148/3
f 37/149/96 39/66/62 5/150/81
f 19/151/95 96/64/60 37/149/96
f 26/68/64 96/152/60 73/69/65
f 49/131/93 73/153/65 19/154/95
f 8/126/91 97/155/63 49/131/93
f 34/124/89 72/156/98 97/157/63
f 98/72/68 26/68/64 72/158/98
f 16/159/90 98/72/68 72/158/98
f 7/115/86 98/72/68 46/160/88
f 75/1/1 28/74/70 2/2/2
f 76/4/4 32/78/72 3/5/5
f 35/7/7 4/161/92 48/8/8
f 78/10/10 42/162/79 1/11/11
f 79/13/13 45/163/6 3/14/5
f 80/16/15 43/94/78 6/17/16
f 51/19/18 11/73/69 29/20/19
f 82/22/21 52/101/82 21/23/22
f 40/25/24 10/164/83 54/26/25
f 55/28/27 15/76/71 33/29/28
f 85/31/30 56/111/84 22/32/31
f 44/34/33 14/165/87 58/35/34
f 59/37/36 18/79/73 36/38/14
f 60/40/38 23/81/74 61/41/39
f 47/43/41 17/82/75 62/44/42
f 90/46/44 63/130/76 20/47/45
f 91/49/47 64/132/94 24/50/48
f 92/52/50 30/166/80 12/53/51
f 67/55/53 18/87/73 48/56/8
f 94/58/55 68/145/97 25/59/56
f 33/61/28 15/167/71 70/62/58
f 96/64/60 71/91/77 9/65/61
f 97/67/63 72/158/98 26/68/64
f 31/70/66 13/168/85 74/71/67
f 75/1/1 41/3/3 11/73/69
f 21/23/22 54/26/25 75/1/1
f 54/26/25 10/164/83 28/74/70
f 55/28/27 76/77/4 45/75/6
f 22/32/31 58/112/34 76/77/4
f 58/35/34 14/165/87 32/78/72
f 77/9/9 48/8/8 18/79/73
f 62/80/42 77/9/9 59/37/36
f 17/82/75 35/129/7 77/83/9
f 78/10/10 50/12/12 20/84/45
f 66/54/52 78/10/10 63/85/76
f 12/53/51 42/162/79 78/10/10
f 67/55/53 79/13/13 36/15/14
f 25/59/56 70/62/58 79/88/13
f 70/62/58 15/167/71 45/90/6
f 71/91/77 80/16/15 27/18/17
f 74/71/67 80/169/15 71/92/77
f 74/93/67 13/170/85 43/94/78
f 81/21/20 29/20/19 1/95/11
f 12/97/51 53/24/23 81/21/20
f 53/24/23 21/23/22 51/19/18
f 30/98/80 82/22/21 53/24/23
f 5/99/81 39/100/62 82/22/21
f 39/100/62 9/102/61 52/101/82
f 52/101/82 83/27/26 54/26/25
f 9/102/61 27/104/17 83/27/26
f 6/103/16 40/25/24 83/27/26
f 84/30/29 33/29/28 2/105/2
f 57/33/32 84/30/29 28/106/70
f 22/32/31 55/28/27 84/30/29
f 40/108/24 85/31/30 57/33/32
f 6/103/16 43/171/78 85/109/30
f 43/110/78 13/114/85 56/111/84
f 56/111/84 86/172/35 58/112/34
f 31/113/66 86/172/35 56/111/84
f 7/115/86 44/173/33 86/116/35
f 87/39/37 36/38/14 3/117/5
f 61/41/39 87/39/37 32/118/72
f 23/81/74 59/37/36 87/39/37
f 88/42/40 61/41/39 14/119/87
f 7/121/86 46/122/88 88/42/40
f 46/122/88 16/125/90 60/40/38
f 89/123/43 62/80/42 23/81/74
f 34/124/89 89/123/43 60/40/38
f 8/126/91 47/43/41 89/45/43
f 90/46/44 38/48/46 4/128/92
f 65/51/49 90/46/44 35/129/7
f 65/51/49 24/50/48 63/130/76
f 47/43/41 91/49/47 65/51/49
f 8/126/91 49/131/93 91/49/47
f 49/131/93 19/154/95 64/132/94
f 64/133/94 92/52/50 66/54/52
f 19/134/95 37/174/96 92/52/50
f 5/99/81 30/98/80 92/135/50
f 93/57/54 48/56/8 4/137/92
f 69/60/57 93/141/54 38/139/46
f 25/59/56 67/89/53 93/141/54
f 94/58/55 69/60/57 20/140/45
f 1/143/11 29/144/19 94/58/55
f 29/144/19 11/146/69 68/145/97
f 95/63/59 70/62/58 25/59/56
f 11/146/69 41/148/3 95/63/59
f 2/147/2 33/61/28 95/63/59
f 37/149/96 96/64/60 39/66/62
f 19/151/95 73/175/65 96/64/60
f 26/68/64 71/92/77 96/152/60
f 49/131/93 97/155/63 73/153/65
f 8/126/91 34/127/89 97/155/63
f 34/124/89 16/125/90 72/156/98
f 98/72/68 74/71/67 26/68/64
f 16/159/90 46/160/88 98/72/68
f 7/115/86 31/70/66 98/72/68
