# Blender v2.78 (sub 0) OBJ File: 'Low poly foliege.blend'
# www.blender.org
mtllib fern.mtl
o bush_fern_joined_Plane.1988
v 0.251498 0.440261 -0.105280
v 0.289382 0.407883 0.161109
v 0.193302 -0.024364 0.167091
v 0.159313 -0.028479 -0.122073
v 0.246943 0.489186 0.029919
v 0.166141 -0.037700 0.020093
v 0.656310 0.484729 -0.109736
v 0.661306 0.394317 0.016837
v 0.664092 0.433870 -0.219007
v 0.782588 0.208632 -0.228215
v 0.787649 0.194967 -0.132298
v 0.792731 0.171935 -0.032708
v 0.834997 0.074476 -0.161157
v 0.203448 0.220389 0.171439
v 0.178187 0.238056 -0.101806
v 0.183121 0.280837 0.046180
v 0.487735 0.480214 0.072146
v 0.473098 0.572668 -0.062722
v 0.483897 0.524511 -0.183526
v 0.757933 0.331938 -0.124035
v 0.752780 0.291149 -0.240707
v 0.766535 0.247358 -0.003915
v 0.062010 0.413998 0.172223
v -0.098016 0.381620 -0.044087
v -0.016345 -0.050627 -0.095047
v 0.151088 -0.054743 0.143149
v 0.001712 0.462923 0.051129
v 0.077463 -0.063963 0.021341
v -0.291962 0.458466 0.368682
v -0.356558 0.368054 0.259719
v -0.246835 0.407607 0.468504
v -0.346691 0.182369 0.532963
v -0.396763 0.168703 0.450997
v -0.448602 0.145672 0.365810
v -0.424686 0.048213 0.498902
v -0.027338 0.194126 -0.094046
v 0.124845 0.211793 0.134298
v 0.050119 0.254573 0.006470
v -0.230184 0.453951 0.128511
v -0.153162 0.546405 0.240186
v -0.105203 0.498247 0.351587
v -0.374554 0.305675 0.429595
v -0.314528 0.264885 0.529774
v -0.439252 0.221094 0.328023
v -0.175979 0.457924 0.016541
v -0.050527 0.425546 -0.221493
v 0.030823 -0.006701 -0.170023
v -0.111134 -0.010816 0.084181
v -0.093041 0.506849 -0.090328
v -0.033335 -0.020037 -0.035004
v -0.506570 0.502392 -0.217132
v -0.436426 0.411980 -0.322609
v -0.576924 0.451533 -0.133162
v -0.678327 0.226295 -0.195159
v -0.626205 0.212630 -0.275837
v -0.571947 0.189598 -0.359504
v -0.681482 0.092139 -0.280209
v 0.025151 0.238052 -0.179492
v -0.114546 0.255719 0.056697
v -0.031801 0.298500 -0.066093
v -0.263378 0.497877 -0.265682
v -0.330574 0.590331 -0.147832
v -0.410133 0.542174 -0.056287
v -0.597286 0.349601 -0.265114
v -0.661498 0.308812 -0.167566
v -0.533846 0.265021 -0.367477
v -0.095859 0.373962 -0.232692
v 0.117602 0.347183 -0.295592
v 0.134002 -0.010308 -0.217683
v -0.098563 -0.013712 -0.155243
v 0.015326 0.414425 -0.245154
v 0.016960 -0.021338 -0.177854
v -0.147979 0.410739 -0.563432
v -0.044997 0.335963 -0.582677
v -0.238331 0.368676 -0.556716
v -0.260055 0.182392 -0.652584
v -0.182169 0.171090 -0.668210
v -0.101279 0.152042 -0.684295
v -0.211455 0.071438 -0.703501
v 0.136345 0.192116 -0.226506
v -0.084237 0.206727 -0.173115
v 0.036275 0.242109 -0.194873
v 0.021049 0.407005 -0.447259
v -0.087567 0.483469 -0.419132
v -0.187718 0.443641 -0.413504
v -0.171848 0.284373 -0.644882
v -0.266709 0.250638 -0.626694
v -0.074580 0.214420 -0.666304
v -0.139110 0.452126 -0.178146
v 0.154274 0.417201 -0.267457
v 0.204391 -0.053152 -0.092439
v -0.113156 -0.060652 0.002903
v 0.010524 0.512000 -0.207586
v 0.045501 -0.067961 -0.031192
v -0.223810 0.433885 -0.633834
v -0.077575 0.334999 -0.649763
v -0.344872 0.372061 -0.612772
v -0.364690 0.098209 -0.706279
v -0.257301 0.084819 -0.728588
v -0.145254 0.060988 -0.750139
v -0.291685 -0.059686 -0.756087
v 0.193118 0.220862 -0.143930
v -0.109504 0.236892 -0.064916
v 0.053018 0.288628 -0.106419
v 0.012526 0.462597 -0.481779
v -0.141294 0.565159 -0.453841
v -0.276020 0.505526 -0.434293
v -0.250329 0.244301 -0.719259
v -0.377812 0.195773 -0.684000
v -0.112356 0.151182 -0.738858
v 0.007685 0.305641 0.228254
v -0.139995 0.294950 0.129521
v -0.113359 0.011955 0.068133
v 0.042689 -0.002183 0.177731
v -0.054965 0.343079 0.168281
v -0.030030 -0.002593 0.118705
v -0.166070 0.334216 0.429548
v -0.232716 0.279971 0.374232
v -0.117558 0.296537 0.479719
v -0.171449 0.148418 0.535620
v -0.220925 0.143261 0.495816
v -0.272476 0.132111 0.454163
v -0.231038 0.063092 0.528326
v -0.112845 0.172547 0.077851
v 0.032233 0.173310 0.185358
v -0.040996 0.207218 0.124275
v -0.181270 0.338638 0.267443
v -0.106291 0.393902 0.321721
v -0.053387 0.357533 0.378482
v -0.207992 0.233400 0.481383
v -0.149909 0.202039 0.528731
v -0.272895 0.182717 0.430810
v 0.274966 0.398226 0.072404
v 0.079232 0.385255 0.162661
v 0.032586 0.041887 0.096204
v 0.244866 0.024733 0.004172
v 0.173213 0.443651 0.099233
v 0.137713 0.024236 0.042021
v 0.373168 0.432898 0.379739
v 0.273702 0.367080 0.413654
v 0.455821 0.387180 0.361328
v 0.479519 0.207462 0.452511
v 0.406984 0.201205 0.478488
v 0.331220 0.187676 0.505440
v 0.434216 0.103933 0.509550
v 0.042968 0.236738 0.101830
v 0.246132 0.237665 0.019824
v 0.136529 0.278807 0.056897
v 0.195797 0.438263 0.292759
v 0.299468 0.505317 0.249563
v 0.391722 0.461188 0.230782
v 0.400244 0.310573 0.455960
v 0.486038 0.272522 0.425858
v 0.306790 0.249078 0.491077
v 0.174742 0.563664 -0.208009
v 0.013932 0.598961 0.065252
v -0.007209 0.090681 0.179059
v 0.180002 0.012025 -0.097092
v 0.061434 0.644273 -0.111371
v 0.080934 0.034675 0.036559
v 0.532476 0.763098 0.041199
v 0.456456 0.692799 0.192334
v 0.629526 0.687088 -0.029637
v 0.778284 0.482763 0.131606
v 0.713040 0.490059 0.225058
v 0.646560 0.487882 0.325509
v 0.796245 0.369663 0.279469
v -0.040563 0.363548 0.091820
v 0.139015 0.315407 -0.173157
v 0.025573 0.395554 -0.056434
v 0.246225 0.733624 0.090611
v 0.319530 0.800786 -0.075109
v 0.427494 0.726416 -0.155178
v 0.658394 0.630742 0.157692
v 0.747834 0.559345 0.067645
v 0.589503 0.566812 0.303216
vt 0.3170 0.6325
vt 0.3559 0.6191
vt 0.3269 0.8381
vt 0.2790 0.6456
vt 0.1648 0.2426
vt 0.2660 0.1251
vt 0.2622 0.2316
vt 0.1645 0.1331
vt 0.2697 0.0186
vt 0.3702 0.1169
vt 0.3780 0.0134
vt 0.3623 0.2203
vt 0.3505 0.3225
vt 0.2715 0.4322
vt 0.2669 0.3319
vt 0.1854 0.3411
vt 0.2942 0.5324
vt 0.2061 0.4396
vt 0.2426 0.5426
vt 0.3387 0.4246
vt 0.3473 0.5219
vt 0.3170 0.6325
vt 0.3559 0.6191
vt 0.3269 0.8381
vt 0.2790 0.6456
vt 0.1648 0.2426
vt 0.2660 0.1251
vt 0.2622 0.2316
vt 0.1645 0.1331
vt 0.2697 0.0186
vt 0.3702 0.1169
vt 0.3780 0.0134
vt 0.3623 0.2203
vt 0.3505 0.3225
vt 0.2715 0.4322
vt 0.2669 0.3319
vt 0.1854 0.3411
vt 0.2942 0.5324
vt 0.2061 0.4396
vt 0.2426 0.5426
vt 0.3387 0.4246
vt 0.3473 0.5219
vt 0.3170 0.6325
vt 0.3559 0.6191
vt 0.3269 0.8381
vt 0.2790 0.6456
vt 0.1648 0.2426
vt 0.2660 0.1251
vt 0.2622 0.2316
vt 0.1645 0.1331
vt 0.2697 0.0186
vt 0.3702 0.1169
vt 0.3780 0.0134
vt 0.3623 0.2203
vt 0.3505 0.3225
vt 0.2715 0.4322
vt 0.2669 0.3319
vt 0.1854 0.3411
vt 0.2942 0.5324
vt 0.2061 0.4396
vt 0.2426 0.5426
vt 0.3387 0.4246
vt 0.3473 0.5219
vt 0.3170 0.6325
vt 0.3559 0.6191
vt 0.3269 0.8381
vt 0.2790 0.6456
vt 0.1648 0.2426
vt 0.2660 0.1251
vt 0.2622 0.2316
vt 0.1645 0.1331
vt 0.2697 0.0186
vt 0.3702 0.1169
vt 0.3780 0.0134
vt 0.3623 0.2203
vt 0.3505 0.3225
vt 0.2715 0.4322
vt 0.2669 0.3319
vt 0.1854 0.3411
vt 0.2942 0.5324
vt 0.2061 0.4396
vt 0.2426 0.5426
vt 0.3387 0.4246
vt 0.3473 0.5219
vt 0.3170 0.6325
vt 0.3559 0.6191
vt 0.3269 0.8381
vt 0.2790 0.6456
vt 0.1648 0.2426
vt 0.2660 0.1251
vt 0.2622 0.2316
vt 0.1645 0.1331
vt 0.2697 0.0186
vt 0.3702 0.1169
vt 0.3780 0.0134
vt 0.3623 0.2203
vt 0.3505 0.3225
vt 0.2715 0.4322
vt 0.2669 0.3319
vt 0.1854 0.3411
vt 0.2942 0.5324
vt 0.2061 0.4396
vt 0.2426 0.5426
vt 0.3387 0.4246
vt 0.3473 0.5219
vt 0.3170 0.6325
vt 0.3559 0.6191
vt 0.3269 0.8381
vt 0.2790 0.6456
vt 0.1648 0.2426
vt 0.2660 0.1251
vt 0.2622 0.2316
vt 0.1645 0.1331
vt 0.2697 0.0186
vt 0.3702 0.1169
vt 0.3780 0.0134
vt 0.3623 0.2203
vt 0.3505 0.3225
vt 0.2715 0.4322
vt 0.2669 0.3319
vt 0.1854 0.3411
vt 0.2942 0.5324
vt 0.2061 0.4396
vt 0.2426 0.5426
vt 0.3387 0.4246
vt 0.3473 0.5219
vt 0.3170 0.6325
vt 0.3559 0.6191
vt 0.3269 0.8381
vt 0.2790 0.6456
vt 0.1648 0.2426
vt 0.2660 0.1251
vt 0.2622 0.2316
vt 0.1645 0.1331
vt 0.2697 0.0186
vt 0.3702 0.1169
vt 0.3780 0.0134
vt 0.3623 0.2203
vt 0.3505 0.3225
vt 0.2715 0.4322
vt 0.2669 0.3319
vt 0.1854 0.3411
vt 0.2942 0.5324
vt 0.2061 0.4396
vt 0.2426 0.5426
vt 0.3387 0.4246
vt 0.3473 0.5219
vt 0.3170 0.6325
vt 0.3559 0.6191
vt 0.3269 0.8381
vt 0.2790 0.6456
vt 0.1648 0.2426
vt 0.2660 0.1251
vt 0.2622 0.2316
vt 0.1645 0.1331
vt 0.2697 0.0186
vt 0.3702 0.1169
vt 0.3780 0.0134
vt 0.3623 0.2203
vt 0.3505 0.3225
vt 0.2715 0.4322
vt 0.2669 0.3319
vt 0.1854 0.3411
vt 0.2942 0.5324
vt 0.2061 0.4396
vt 0.2426 0.5426
vt 0.3387 0.4246
vt 0.3473 0.5219
vt 0.1642 0.0237
vt 0.1642 0.0237
vt 0.1642 0.0237
vt 0.1642 0.0237
vt 0.1642 0.0237
vt 0.1642 0.0237
vt 0.1642 0.0237
vt 0.1642 0.0237
vn 0.9510 0.3091 0.0086
vn 0.9424 0.3331 0.0289
vn 0.9321 0.3617 0.0191
vn 0.9373 0.3484 0.0002
vn -0.7566 0.6098 -0.2360
vn -0.9619 0.2344 0.1408
vn -0.6439 0.7386 0.1996
vn -0.9850 0.1722 -0.0110
vn -0.9931 0.0507 0.1056
vn -0.9536 0.1798 0.2416
vn -0.9832 0.0376 0.1783
vn -0.6009 0.6046 0.5228
vn 0.1932 0.8177 0.5422
vn 0.6254 0.7792 0.0404
vn 0.0417 0.9969 0.0672
vn 0.0390 0.9250 -0.3780
vn 0.9009 0.4330 0.0293
vn 0.6737 0.6846 -0.2781
vn 0.9140 0.3820 -0.1367
vn 0.6842 0.6093 0.4007
vn 0.9166 0.3677 0.1568
vn -0.8406 0.3091 0.4447
vn -0.8428 0.3331 0.4228
vn -0.8290 0.3617 0.4265
vn -0.8246 0.3484 0.4456
vn 0.7778 0.6098 -0.1523
vn 0.7791 0.2344 -0.5814
vn 0.4714 0.7386 -0.4818
vn 0.8717 0.1722 -0.4588
vn 0.8234 0.0507 -0.5652
vn 0.7239 0.1798 -0.6660
vn 0.7801 0.0376 -0.6245
vn 0.2800 0.6046 -0.7457
vn -0.4278 0.8177 -0.3850
vn -0.5694 0.7792 0.2619
vn -0.0686 0.9969 -0.0393
vn 0.1455 0.9250 0.3511
vn -0.8064 0.4330 0.4027
vn -0.4603 0.6846 0.5651
vn -0.7389 0.3820 0.5549
vn -0.7924 0.6093 -0.0271
vn -0.8809 0.3677 0.2980
vn -0.7654 0.3091 -0.5644
vn -0.7466 0.3331 -0.5759
vn -0.7439 0.3617 -0.5618
vn -0.7593 0.3484 -0.5495
vn 0.4747 0.6098 0.6347
vn 0.8619 0.2344 0.4497
vn 0.6386 0.7386 0.2157
vn 0.7915 0.1722 0.5863
vn 0.8665 0.0507 0.4966
vn 0.9142 0.1798 0.3632
vn 0.9011 0.0376 0.4319
vn 0.7933 0.6046 -0.0713
vn 0.1613 0.8177 -0.5525
vn -0.4830 0.7792 -0.3994
vn 0.0056 0.9969 -0.0789
vn -0.2532 0.9250 0.2834
vn -0.7127 0.4330 -0.5518
vn -0.7089 0.6846 -0.1695
vn -0.8206 0.3820 -0.4250
vn -0.3194 0.6093 -0.7257
vn -0.6507 0.3677 -0.6643
vn -0.1291 0.3091 -0.9422
vn -0.1078 0.3331 -0.9367
vn -0.1160 0.3617 -0.9250
vn -0.1355 0.3484 -0.9275
vn -0.1239 0.6098 0.7828
vn 0.2786 0.2344 0.9314
vn 0.2907 0.7386 0.6082
vn 0.1317 0.1722 0.9762
vn 0.2482 0.0507 0.9673
vn 0.3771 0.1798 0.9085
vn 0.3187 0.0376 0.9471
vn 0.6042 0.6046 0.5189
vn 0.5085 0.8177 -0.2697
vn -0.0505 0.7792 -0.6247
vn 0.0605 0.9969 -0.0510
vn -0.3797 0.9250 0.0161
vn -0.1014 0.4330 -0.8956
vn -0.3728 0.6846 -0.6263
vn -0.2676 0.3820 -0.8845
vn 0.2975 0.6093 -0.7350
vn 0.0224 0.3677 -0.9297
vn -0.1663 0.1652 -0.9721
vn -0.1461 0.1907 -0.9707
vn -0.1555 0.2203 -0.9630
vn -0.1744 0.2059 -0.9629
vn -0.1369 0.7086 0.6922
vn 0.2876 0.3776 0.8802
vn 0.2665 0.8307 0.4888
vn 0.1451 0.3156 0.9377
vn 0.2675 0.1998 0.9426
vn 0.3882 0.3251 0.8623
vn 0.3381 0.1872 0.9223
vn 0.5844 0.7002 0.4100
vn 0.4598 0.7940 -0.3976
vn -0.1045 0.6789 -0.7267
vn 0.0084 0.9811 -0.1930
vn -0.4259 0.8988 -0.1033
vn -0.1439 0.2957 -0.9444
vn -0.4215 0.5700 -0.7053
vn -0.3070 0.2389 -0.9212
vn 0.2490 0.5117 -0.8223
vn -0.0177 0.2321 -0.9725
vn -0.6268 0.3077 0.7158
vn -0.6351 0.3328 0.6970
vn -0.6197 0.3608 0.6970
vn -0.6097 0.3464 0.7129
vn 0.7068 0.5956 -0.3817
vn 0.5468 0.2439 -0.8010
vn 0.3133 0.7503 -0.5821
vn 0.6725 0.1727 -0.7197
vn 0.5857 0.0585 -0.8084
vn 0.4639 0.1954 -0.8640
vn 0.5245 0.0497 -0.8499
vn 0.0383 0.6360 -0.7707
vn -0.4962 0.8487 -0.1829
vn -0.4127 0.7793 0.4715
vn -0.0339 0.9990 0.0276
vn 0.2960 0.9004 0.3189
vn -0.6033 0.4327 0.6699
vn -0.2120 0.6656 0.7156
vn -0.4908 0.3717 0.7880
vn -0.7275 0.6314 0.2685
vn -0.7115 0.3752 0.5941
vn 0.2832 0.3077 0.9084
vn 0.2627 0.3328 0.9056
vn 0.2708 0.3608 0.8925
vn 0.2896 0.3464 0.8922
vn 0.0436 0.5956 -0.8021
vn -0.3975 0.2439 -0.8845
vn -0.3329 0.7503 -0.5712
vn -0.2626 0.1727 -0.9493
vn -0.3835 0.0585 -0.9217
vn -0.4946 0.1954 -0.8468
vn -0.4509 0.0497 -0.8911
vn -0.6373 0.6360 -0.4351
vn -0.4151 0.8487 0.3276
vn 0.1866 0.7793 0.5982
vn 0.0058 0.9990 0.0433
vn 0.4265 0.9004 -0.0859
vn 0.2562 0.4327 0.8643
vn 0.4996 0.6656 0.5545
vn 0.4158 0.3717 0.8300
vn -0.1509 0.6314 0.7606
vn 0.1351 0.3752 0.9171
vn 0.6739 0.5919 0.4421
vn 0.6512 0.6152 0.4443
vn 0.6457 0.6367 0.4214
vn 0.6636 0.6226 0.4147
vn -0.5065 0.2842 -0.8141
vn -0.8513 -0.0626 -0.5209
vn -0.7160 0.5185 -0.4674
vn -0.7636 -0.1552 -0.6268
vn -0.8275 -0.2498 -0.5027
vn -0.9018 -0.0926 -0.4222
vn -0.8646 -0.2458 -0.4382
vn -0.8712 0.4657 -0.1553
vn -0.3100 0.9203 0.2383
vn 0.3428 0.9315 0.1212
vn -0.1467 0.9532 -0.2645
vn 0.1448 0.8050 -0.5752
vn 0.6059 0.6950 0.3871
vn 0.5953 0.8014 -0.0580
vn 0.7286 0.6217 0.2874
vn 0.1809 0.8571 0.4823
vn 0.5455 0.6623 0.5137
vn -0.9964 0.0666 0.0522
vn 0.8516 0.0666 -0.5198
vn 0.8379 0.0666 0.5418
vn 0.1959 0.0666 0.9783
vn 0.2146 0.2145 0.9528
vn 0.6284 0.0711 -0.7746
vn -0.3325 0.0711 -0.9404
vn -0.7982 -0.2457 -0.5500
usemtl fern
s 1
f 11/1/1 12/2/2 13/3/3
f 10/4/4 11/1/1 13/3/3
f 1/5/5 16/6/6 5/7/7
f 15/8/8 6/9/9 16/6/6
f 14/10/10 6/9/9 3/11/11
f 2/12/12 16/6/6 14/10/10
f 17/13/13 5/7/7 2/12/12
f 17/13/13 7/14/14 18/15/15
f 1/5/5 18/15/15 19/16/16
f 7/14/14 19/16/16 18/15/15
f 20/17/17 9/18/18 7/14/14
f 11/1/1 21/19/19 20/17/17
f 8/20/20 20/17/17 7/14/14
f 22/21/21 11/1/1 20/17/17
f 33/22/22 34/23/23 35/24/24
f 32/25/25 33/22/22 35/24/24
f 23/26/26 38/27/27 27/28/28
f 37/29/29 28/30/30 38/27/27
f 36/31/31 28/30/30 25/32/32
f 24/33/33 38/27/27 36/31/31
f 39/34/34 27/28/28 24/33/33
f 39/34/34 29/35/35 40/36/36
f 23/26/26 40/36/36 41/37/37
f 29/35/35 41/37/37 40/36/36
f 42/38/38 31/39/39 29/35/35
f 33/22/22 43/40/40 42/38/38
f 30/41/41 42/38/38 29/35/35
f 44/42/42 33/22/22 42/38/38
f 55/43/43 56/44/44 57/45/45
f 54/46/46 55/43/43 57/45/45
f 45/47/47 60/48/48 49/49/49
f 59/50/50 50/51/51 60/48/48
f 58/52/52 50/51/51 47/53/53
f 46/54/54 60/48/48 58/52/52
f 61/55/55 49/49/49 46/54/54
f 61/55/55 51/56/56 62/57/57
f 45/47/47 62/57/57 63/58/58
f 51/56/56 63/58/58 62/57/57
f 64/59/59 53/60/60 51/56/56
f 55/43/43 65/61/61 64/59/59
f 52/62/62 64/59/59 51/56/56
f 66/63/63 55/43/43 64/59/59
f 77/64/64 78/65/65 79/66/66
f 76/67/67 77/64/64 79/66/66
f 67/68/68 82/69/69 71/70/70
f 81/71/71 72/72/72 82/69/69
f 80/73/73 72/72/72 69/74/74
f 68/75/75 82/69/69 80/73/73
f 83/76/76 71/70/70 68/75/75
f 83/76/76 73/77/77 84/78/78
f 67/68/68 84/78/78 85/79/79
f 73/77/77 85/79/79 84/78/78
f 86/80/80 75/81/81 73/77/77
f 77/64/64 87/82/82 86/80/80
f 74/83/83 86/80/80 73/77/77
f 88/84/84 77/64/64 86/80/80
f 99/85/85 100/86/86 101/87/87
f 98/88/88 99/85/85 101/87/87
f 89/89/89 104/90/90 93/91/91
f 103/92/92 94/93/93 104/90/90
f 102/94/94 94/93/93 91/95/95
f 90/96/96 104/90/90 102/94/94
f 105/97/97 93/91/91 90/96/96
f 105/97/97 95/98/98 106/99/99
f 89/89/89 106/99/99 107/100/100
f 95/98/98 107/100/100 106/99/99
f 108/101/101 97/102/102 95/98/98
f 99/85/85 109/103/103 108/101/101
f 96/104/104 108/101/101 95/98/98
f 110/105/105 99/85/85 108/101/101
f 121/106/106 122/107/107 123/108/108
f 120/109/109 121/106/106 123/108/108
f 111/110/110 126/111/111 115/112/112
f 125/113/113 116/114/114 126/111/111
f 124/115/115 116/114/114 113/116/116
f 112/117/117 126/111/111 124/115/115
f 127/118/118 115/112/112 112/117/117
f 127/118/118 117/119/119 128/120/120
f 111/110/110 128/120/120 129/121/121
f 117/119/119 129/121/121 128/120/120
f 130/122/122 119/123/123 117/119/119
f 121/106/106 131/124/124 130/122/122
f 118/125/125 130/122/122 117/119/119
f 132/126/126 121/106/106 130/122/122
f 143/127/127 144/128/128 145/129/129
f 142/130/130 143/127/127 145/129/129
f 133/131/131 148/132/132 137/133/133
f 147/134/134 138/135/135 148/132/132
f 146/136/136 138/135/135 135/137/137
f 134/138/138 148/132/132 146/136/136
f 149/139/139 137/133/133 134/138/138
f 149/139/139 139/140/140 150/141/141
f 133/131/131 150/141/141 151/142/142
f 139/140/140 151/142/142 150/141/141
f 152/143/143 141/144/144 139/140/140
f 143/127/127 153/145/145 152/143/143
f 140/146/146 152/143/143 139/140/140
f 154/147/147 143/127/127 152/143/143
f 165/148/148 166/149/149 167/150/150
f 164/151/151 165/148/148 167/150/150
f 155/152/152 170/153/153 159/154/154
f 169/155/155 160/156/156 170/153/153
f 168/157/157 160/156/156 157/158/158
f 156/159/159 170/153/153 168/157/157
f 171/160/160 159/154/154 156/159/159
f 171/160/160 161/161/161 172/162/162
f 155/152/152 172/162/162 173/163/163
f 161/161/161 173/163/163 172/162/162
f 174/164/164 163/165/165 161/161/161
f 165/148/148 175/166/166 174/164/164
f 162/167/167 174/164/164 161/161/161
f 176/168/168 165/148/148 174/164/164
f 1/5/5 15/8/8 16/6/6
f 15/8/8 4/169/169 6/9/9
f 14/10/10 16/6/6 6/9/9
f 2/12/12 5/7/7 16/6/6
f 17/13/13 18/15/15 5/7/7
f 17/13/13 8/20/20 7/14/14
f 1/5/5 5/7/7 18/15/15
f 7/14/14 9/18/18 19/16/16
f 20/17/17 21/19/19 9/18/18
f 11/1/1 10/4/4 21/19/19
f 8/20/20 22/21/21 20/17/17
f 22/21/21 12/2/2 11/1/1
f 23/26/26 37/29/29 38/27/27
f 37/29/29 26/170/170 28/30/30
f 36/31/31 38/27/27 28/30/30
f 24/33/33 27/28/28 38/27/27
f 39/34/34 40/36/36 27/28/28
f 39/34/34 30/41/41 29/35/35
f 23/26/26 27/28/28 40/36/36
f 29/35/35 31/39/39 41/37/37
f 42/38/38 43/40/40 31/39/39
f 33/22/22 32/25/25 43/40/40
f 30/41/41 44/42/42 42/38/38
f 44/42/42 34/23/23 33/22/22
f 45/47/47 59/50/50 60/48/48
f 59/50/50 48/171/171 50/51/51
f 58/52/52 60/48/48 50/51/51
f 46/54/54 49/49/49 60/48/48
f 61/55/55 62/57/57 49/49/49
f 61/55/55 52/62/62 51/56/56
f 45/47/47 49/49/49 62/57/57
f 51/56/56 53/60/60 63/58/58
f 64/59/59 65/61/61 53/60/60
f 55/43/43 54/46/46 65/61/61
f 52/62/62 66/63/63 64/59/59
f 66/63/63 56/44/44 55/43/43
f 67/68/68 81/71/71 82/69/69
f 81/71/71 70/172/172 72/72/72
f 80/73/73 82/69/69 72/72/72
f 68/75/75 71/70/70 82/69/69
f 83/76/76 84/78/78 71/70/70
f 83/76/76 74/83/83 73/77/77
f 67/68/68 71/70/70 84/78/78
f 73/77/77 75/81/81 85/79/79
f 86/80/80 87/82/82 75/81/81
f 77/64/64 76/67/67 87/82/82
f 74/83/83 88/84/84 86/80/80
f 88/84/84 78/65/65 77/64/64
f 89/89/89 103/92/92 104/90/90
f 103/92/92 92/173/173 94/93/93
f 102/94/94 104/90/90 94/93/93
f 90/96/96 93/91/91 104/90/90
f 105/97/97 106/99/99 93/91/91
f 105/97/97 96/104/104 95/98/98
f 89/89/89 93/91/91 106/99/99
f 95/98/98 97/102/102 107/100/100
f 108/101/101 109/103/103 97/102/102
f 99/85/85 98/88/88 109/103/103
f 96/104/104 110/105/105 108/101/101
f 110/105/105 100/86/86 99/85/85
f 111/110/110 125/113/113 126/111/111
f 125/113/113 114/174/174 116/114/114
f 124/115/115 126/111/111 116/114/114
f 112/117/117 115/112/112 126/111/111
f 127/118/118 128/120/120 115/112/112
f 127/118/118 118/125/125 117/119/119
f 111/110/110 115/112/112 128/120/120
f 117/119/119 119/123/123 129/121/121
f 130/122/122 131/124/124 119/123/123
f 121/106/106 120/109/109 131/124/124
f 118/125/125 132/126/126 130/122/122
f 132/126/126 122/107/107 121/106/106
f 133/131/131 147/134/134 148/132/132
f 147/134/134 136/175/175 138/135/135
f 146/136/136 148/132/132 138/135/135
f 134/138/138 137/133/133 148/132/132
f 149/139/139 150/141/141 137/133/133
f 149/139/139 140/146/146 139/140/140
f 133/131/131 137/133/133 150/141/141
f 139/140/140 141/144/144 151/142/142
f 152/143/143 153/145/145 141/144/144
f 143/127/127 142/130/130 153/145/145
f 140/146/146 154/147/147 152/143/143
f 154/147/147 144/128/128 143/127/127
f 155/152/152 169/155/155 170/153/153
f 169/155/155 158/176/176 160/156/156
f 168/157/157 170/153/153 160/156/156
f 156/159/159 159/154/154 170/153/153
f 171/160/160 172/162/162 159/154/154
f 171/160/160 162/167/167 161/161/161
f 155/152/152 159/154/154 172/162/162
f 161/161/161 163/165/165 173/163/163
f 174/164/164 175/166/166 163/165/165
f 165/148/148 164/151/151 175/166/166
f 162/167/167 176/168/168 174/164/164
f 176/168/168 166/149/149 165/148/148
