# Blender v2.78 (sub 0) OBJ File: 'Rock Pack.blend'
# www.blender.org
mtllib Rock Pack.mtl
o Cube.003
v -0.778240 -0.307487 0.989860
v -0.827612 -0.338139 -0.827919
v 0.752156 -0.283036 -0.773097
v 0.729402 -0.262649 0.867094
v -0.646084 0.243102 1.118600
v -0.703979 0.223528 -0.487957
v 0.695668 0.250719 -0.563305
v 0.732424 0.309082 1.046650
v -0.732557 0.293098 0.365597
v -0.856163 -0.005917 -0.954233
v -0.903702 -0.383405 0.010924
v -0.806638 -0.009147 1.190828
v 0.009319 0.320307 -0.682572
v 0.924525 -0.008146 -0.898120
v 0.006258 -0.349522 -1.066121
v 0.831416 0.309957 0.319738
v 0.842521 0.006451 1.198138
v 0.978764 -0.384600 0.021658
v 0.055964 0.312720 1.243569
v 0.011379 -0.367880 1.191604
v -0.971646 0.000000 0.176535
v 0.028407 -0.000600 -1.026245
v 1.028354 0.000000 0.176535
v 0.028354 0.000000 1.390600
v 0.000344 -0.390347 0.024948
v 0.057478 0.386132 0.328263
v -0.666361 0.268939 -0.150931
v -0.815838 -0.179379 -0.853799
v -0.790600 -0.315126 0.482969
v -0.749053 0.141087 1.215535
v 0.420765 0.291732 -0.665440
v 0.910289 -0.179473 -0.890897
v -0.455346 -0.338374 -0.933314
v 0.783084 0.343436 0.753013
v 0.849138 -0.185924 1.155793
v 0.820931 -0.328335 -0.449212
v -0.403751 0.287264 1.202419
v 0.396684 -0.311844 1.082715
v -0.721496 0.285187 0.839623
v -0.826619 0.140365 -0.795338
v -0.936855 -0.363470 -0.545241
v -0.854925 -0.186796 1.166360
v -0.368446 0.283116 -0.582913
v 0.817677 0.148936 -0.729158
v 0.445608 -0.326492 -0.997723
v 0.798241 0.284603 -0.223246
v 0.823864 0.187838 1.198512
v 0.854918 -0.303090 0.471034
v 0.458993 0.312420 1.240947
v -0.406707 -0.310502 1.095614
v -0.982284 -0.195464 0.100629
v -0.941757 0.192557 0.254767
v -0.971646 0.000000 0.783568
v -0.953731 -0.000226 -0.423077
v 0.014899 -0.194821 -1.022526
v 0.043118 0.190268 -0.935584
v -0.471390 -0.000217 -1.031817
v 0.528308 -0.000080 -1.036082
v 1.004581 -0.194024 0.100332
v 1.042643 0.195597 0.252350
v 1.028350 -0.000000 -0.430495
v 1.028354 0.000000 0.783568
v 0.014177 -0.195489 1.308559
v 0.042531 0.195489 1.472641
v 0.528354 0.000000 1.390600
v -0.471646 0.000000 1.390599
v 0.499938 -0.390788 0.024915
v -0.491119 -0.376628 0.022172
v 0.009839 -0.370176 0.605733
v -0.000619 -0.380827 -0.575728
v -0.413302 0.367183 0.337905
v 0.555768 0.388103 0.327562
v 0.064798 0.377033 0.924053
v 0.059909 0.368398 -0.270755
v -0.963151 -0.195763 -0.493431
v 0.514180 -0.195489 -1.106252
v 1.013880 -0.195331 0.704372
v -0.485823 -0.195489 1.308559
v 0.481526 -0.362886 -0.555242
v -0.370854 0.343721 -0.219855
v -0.985110 -0.195415 0.704397
v -0.956057 0.195235 0.861051
v -0.885532 0.182975 -0.339894
v -0.470637 -0.193532 -0.981611
v -0.433107 0.170569 -0.850950
v 0.534905 0.191898 -0.955455
v 0.999924 -0.192633 -0.498521
v 0.987246 0.181252 -0.330892
v 1.042309 0.195504 0.862373
v 0.519906 -0.200247 1.343600
v 0.540226 0.194768 1.465471
v -0.446781 0.188734 1.441383
v 0.452674 -0.343698 0.561055
v -0.448313 -0.337774 0.563039
v -0.484080 -0.361484 -0.574177
v -0.384009 0.351100 0.886576
v 0.529528 0.391739 0.925314
v 0.532105 0.367442 -0.261910
vt 0.8481 0.2706
vt 0.7223 0.0352
vt 0.7012 0.2497
vt 0.7571 0.2500
vt 0.8761 0.1380
vt 0.7228 0.0825
vt 0.0069 0.2129
vt -0.1353 0.1465
vt -0.0725 0.3080
vt 0.2571 0.2500
vt 0.1109 0.1068
vt 0.2966 0.1029
vt 0.7408 0.7263
vt 0.8761 0.8152
vt 0.9105 0.6831
vt 0.3146 0.5896
vt 0.1480 0.6989
vt 0.1668 0.5615
vt 0.4590 0.2500
vt 0.3031 0.0970
vt 0.2128 0.2501
vt 0.3961 0.7462
vt 0.1806 0.5000
vt 0.1490 0.7497
vt 0.8242 0.6795
vt 0.6725 0.4997
vt 0.6386 0.7340
vt 0.5074 0.2509
vt 0.2723 0.0673
vt 0.2647 0.2525
vt 0.2834 0.7181
vt 0.5142 0.4992
vt 0.2643 0.4997
vt 0.7675 0.7454
vt 0.9623 0.4896
vt 0.7642 0.4999
vt 0.7032 0.2537
vt 0.4912 0.0082
vt 0.6831 0.0801
vt 0.6349 0.7318
vt 0.4280 0.5000
vt 0.6755 0.5000
vt 0.1484 0.7500
vt 0.0116 0.5082
vt 0.1806 0.5000
vt 0.5071 0.2500
vt 0.6983 0.1012
vt 0.7600 0.2439
vt 0.5213 0.7500
vt 0.7642 0.5000
vt 0.7701 0.7491
vt 0.1255 0.6804
vt 0.2642 0.5000
vt 0.2766 0.7414
vt 0.7500 0.4898
vt 0.9275 0.3080
vt 0.7263 0.2713
vt 0.2758 0.2705
vt 0.5002 0.4898
vt 0.5049 0.2531
vt 0.2723 0.8805
vt 0.4997 0.7347
vt 0.2580 0.7341
vt 0.2933 0.3623
vt 0.1393 0.1577
vt 0.3080 0.1386
vt 0.7648 0.1228
vt 0.5287 0.3662
vt 0.5324 0.1233
vt 0.7104 0.7713
vt 0.5300 0.6104
vt 0.7661 0.6068
vt 0.4955 0.0097
vt 0.4280 0.5000
vt 0.5031 0.0530
vt 0.9551 0.2705
vt 0.4591 0.2519
vt 0.3080 0.1124
vt 0.2129 0.2502
vt 0.0288 0.2622
vt 0.5057 0.0295
vt 0.5142 0.5000
vt 0.0967 0.4883
vt 0.9894 0.4912
vt 0.7228 0.9067
vt 0.1337 0.3510
vt 0.3158 0.7376
vt 0.0965 0.1068
vt 0.0245 0.2611
vt 0.0145 0.4883
vt 0.0045 0.6804
vt 0.0440 0.8109
vt 0.3510 0.8748
vt 0.1577 0.8647
vt 0.0291 0.3961
vt 0.0572 0.6386
vt 0.0921 0.2706
vt 0.0862 0.0676
vt 0.0719 0.4924
vt 0.0867 0.6795
vt 0.2834 0.8469
vt 0.0867 0.8242
vt 0.5047 0.9096
vt 0.3158 0.8621
vt 0.5216 0.7433
vt 0.7104 0.8731
vt 0.8478 0.7296
vt 0.7675 0.8895
vt 0.8152 0.1380
vt 0.8632 0.2705
vt 0.8661 0.4896
vt 0.7972 0.6905
vt 0.7296 0.8206
vt 0.5910 0.8640
vt 0.3971 0.7501
vt 0.3697 0.8964
vt 0.0733 0.8953
vt 0.1930 0.9392
vt 0.9246 0.0288
vt 0.6983 0.0586
vt 0.8647 0.1465
vt 0.9213 0.5082
vt 0.9246 0.2622
vt 0.9119 0.7402
vt 0.7295 0.8995
vt 0.8662 0.8953
vt 0.2981 0.8674
vt 0.5280 0.8999
vt 0.1770 0.8109
vt 0.5057 0.0142
vt 0.2966 0.0534
vt 0.1109 0.0965
vt 0.1047 0.3031
vt 0.2544 0.4910
vt 0.0481 0.4955
vt 0.0862 0.8375
vt 0.0316 0.7223
vt 0.1770 0.0440
vt 0.2981 0.0098
vt 0.5324 1.1233
vt 0.2981 1.0098
vt 0.5280 0.9930
vt 0.7295 0.9941
vt 0.8662 0.0733
vt 0.7295 -0.0059
vt 0.8915 0.1930
vt 0.7779 0.3665
vt 0.8991 0.5910
vt 0.9157 0.3697
vt 0.8375 0.0676
vt -0.0754 0.0288
vt 0.0725 0.2611
vt 0.8890 0.4924
vt 0.9088 0.6905
vt 0.0114 0.7402
vt 0.5031 0.9346
vt 0.5047 0.7783
vt 0.9088 0.7972
vt 0.7600 -0.0477
vt 0.3080 1.1386
vt 0.7648 1.1228
vn -0.6936 -0.2535 -0.6743
vn -0.6972 -0.6938 -0.1803
vn -0.9823 -0.0066 -0.1872
vn 0.2297 -0.2422 -0.9426
vn 0.3304 -0.9123 -0.2417
vn 0.1561 -0.8508 -0.5018
vn 0.8032 -0.5762 0.1509
vn 0.2402 -0.9612 0.1353
vn 0.3532 -0.9279 0.1192
vn -0.1877 -0.6264 0.7566
vn -0.3391 -0.9148 0.2192
vn -0.0891 -0.9534 0.2882
vn 0.0941 -0.9924 -0.0791
vn 0.3218 -0.9286 -0.1848
vn -0.1540 0.9832 -0.0982
vn -0.2510 0.9543 -0.1620
vn -0.2910 0.9538 -0.0743
vn -0.9693 -0.2400 0.0529
vn -0.3169 -0.9465 0.0610
vn -0.8873 -0.4530 0.0862
vn -0.7903 0.6103 -0.0538
vn -0.9866 0.0330 0.1597
vn -0.8139 0.5347 0.2273
vn -0.5382 0.7615 -0.3611
vn -0.9673 0.2188 -0.1285
vn -0.6826 0.7246 -0.0948
vn -0.0792 0.0414 -0.9960
vn -0.1566 -0.7664 -0.6229
vn -0.2174 -0.2874 -0.9328
vn -0.1357 0.8365 -0.5308
vn -0.0705 0.2649 -0.9617
vn -0.1466 0.2679 -0.9522
vn 0.1825 0.7279 -0.6609
vn 0.7300 0.2964 -0.6157
vn 0.1815 0.3280 -0.9271
vn 0.8656 -0.4643 -0.1872
vn 0.6448 -0.7618 0.0618
vn 0.7638 0.6231 -0.1685
vn 0.9973 -0.0675 -0.0278
vn 0.9760 0.1475 -0.1603
vn 0.8768 0.4126 0.2469
vn 0.7199 -0.0545 0.6919
vn 0.9721 -0.1357 0.1912
vn -0.0136 -0.5557 0.8313
vn 0.1401 -0.9612 0.2376
vn 0.2106 -0.6255 0.7512
vn -0.0398 0.3495 0.9361
vn 0.3052 -0.2697 0.9133
vn 0.3453 0.3241 0.8807
vn -0.6196 0.4534 0.6406
vn -0.2799 -0.2668 0.9222
vn -0.2814 0.4175 0.8640
vn 0.0299 -0.9993 0.0231
vn 0.0971 -0.9916 0.0852
vn -0.0641 -0.9966 0.0522
vn -0.0097 -0.9998 0.0164
vn -0.0031 -0.9993 0.0366
vn 0.0017 -0.9991 -0.0432
vn -0.0195 -0.9986 -0.0492
vn -0.1382 0.9903 -0.0153
vn -0.2824 0.9522 0.1164
vn -0.1341 0.9845 0.1127
vn 0.1109 0.9841 0.1388
vn -0.0286 0.9995 -0.0111
vn -0.0438 0.9926 0.1129
vn 0.1082 0.9604 -0.2566
vn -0.0277 0.9956 -0.0894
vn 0.1581 0.9798 -0.1227
vn -0.5472 -0.8329 0.0820
vn -0.9911 0.1291 -0.0328
vn -0.0480 -0.5434 -0.8381
vn 0.6733 -0.4764 -0.5654
vn 0.9742 -0.2138 0.0722
vn 0.6325 -0.5808 0.5124
vn 0.0142 -0.8625 0.5058
vn -0.0240 -0.3679 0.9295
vn -0.7104 0.0676 0.7005
vn -0.3206 0.9467 -0.0308
vn -0.1839 0.9530 -0.2406
vn -0.6814 -0.3834 0.6233
vn -0.3375 0.8919 0.3009
vn -0.5453 -0.6128 -0.5719
vn -0.6487 0.0966 -0.7549
vn -0.0363 0.9559 -0.2914
vn -0.0672 0.7000 -0.7109
vn 0.3211 0.9168 -0.2373
vn 0.5379 0.7877 -0.3003
vn 0.3682 0.9227 -0.1143
vn 0.8721 0.4874 -0.0443
vn 0.3797 0.9242 -0.0410
vn 0.3580 0.8834 0.3024
vn 0.3551 0.9333 0.0529
vn 0.6371 0.4577 0.6202
vn 0.1230 0.9279 0.3520
vn -0.1576 0.9463 0.2821
vn -0.0388 0.9429 0.3307
vn -0.0161 -0.9992 0.0360
vn 0.1335 0.9905 -0.0320
usemtl texture\\rock2\\rock2.dds
s 1
f 28/1/1 41/2/2 75/3/3
f 76/4/4 3/5/5 45/6/6
f 77/7/7 4/8/8 48/9/9
f 78/10/10 1/11/11 50/12/12
f 79/13/13 3/14/5 36/15/14
f 80/16/15 6/17/16 27/18/17
f 51/19/18 29/20/19 81/21/20
f 52/22/21 53/23/22 82/24/23
f 40/25/24 54/26/25 83/27/26
f 55/28/27 33/29/28 84/30/29
f 85/31/30 22/32/31 57/33/32
f 86/34/33 14/35/34 58/36/35
f 87/37/36 18/38/37 36/39/14
f 88/40/38 23/41/39 61/42/40
f 89/43/41 17/44/42 62/45/43
f 63/46/44 38/47/45 90/48/46
f 64/49/47 65/50/48 91/51/49
f 30/52/50 66/53/51 92/54/52
f 67/55/53 48/56/9 93/57/54
f 94/58/55 25/59/56 69/60/57
f 33/61/28 70/62/58 95/63/59
f 71/64/60 39/65/61 96/66/62
f 97/67/63 26/68/64 73/69/65
f 31/70/66 74/71/67 98/72/68
f 75/3/3 11/73/69 51/19/18
f 54/26/25 51/19/18 21/74/70
f 54/26/25 28/1/1 75/3/3
f 55/28/27 45/6/6 15/75/71
f 22/32/31 76/4/4 55/28/27
f 58/36/35 32/76/72 76/4/4
f 59/77/73 48/78/9 18/38/37
f 23/41/39 77/79/7 59/77/73
f 62/45/43 35/80/74 77/79/7
f 63/46/44 50/12/12 20/81/75
f 66/53/51 63/46/44 24/82/76
f 12/83/77 78/10/10 66/53/51
f 67/55/53 36/15/14 18/84/37
f 25/59/56 79/13/13 67/55/53
f 70/62/58 45/85/6 79/13/13
f 71/64/60 27/18/17 9/86/78
f 26/68/64 80/16/15 71/64/60
f 74/71/67 43/87/79 80/16/15
f 81/21/20 1/88/11 42/89/80
f 53/23/22 42/89/80 12/90/77
f 21/74/70 81/21/20 53/23/22
f 82/24/23 12/90/77 30/91/50
f 5/92/81 82/24/23 30/91/50
f 9/93/78 82/24/23 39/94/61
f 83/27/26 21/74/70 52/22/21
f 27/18/17 52/95/21 9/86/78
f 6/17/16 83/96/26 27/18/17
f 28/97/1 33/29/28 2/98/82
f 57/33/32 28/97/1 10/99/83
f 57/33/32 55/28/27 84/30/29
f 40/100/24 57/33/32 10/99/83
f 6/17/16 85/101/30 40/102/24
f 13/103/84 85/31/30 43/104/79
f 56/105/85 58/36/35 22/32/31
f 31/106/66 56/105/85 13/103/84
f 7/107/86 86/108/33 31/70/66
f 87/37/36 3/109/5 32/110/72
f 14/111/34 87/37/36 32/110/72
f 61/42/40 59/77/73 87/37/36
f 44/112/87 61/42/40 14/111/34
f 7/113/86 88/40/38 44/112/87
f 46/114/88 60/115/89 88/40/38
f 60/115/89 62/45/43 23/41/39
f 16/116/90 89/43/41 60/115/89
f 8/117/91 89/43/41 34/118/92
f 35/119/74 38/120/45 4/121/8
f 17/122/42 90/48/46 35/123/74
f 24/82/76 90/48/46 65/50/48
f 47/124/93 65/50/48 17/122/42
f 49/125/94 47/124/93 8/126/91
f 49/125/94 64/49/47 91/51/49
f 92/54/52 24/82/76 64/49/47
f 37/127/95 64/49/47 19/128/96
f 5/129/81 92/54/52 37/127/95
f 93/57/54 4/121/8 38/120/45
f 69/60/57 38/120/45 20/130/75
f 25/59/56 93/57/54 69/60/57
f 50/131/12 69/60/57 20/130/75
f 1/132/11 94/58/55 50/131/12
f 29/133/19 68/134/97 94/58/55
f 95/63/59 25/59/56 68/134/97
f 11/135/69 95/63/59 68/134/97
f 2/136/82 95/63/59 41/137/2
f 96/66/62 5/138/81 37/139/95
f 73/140/65 37/141/95 19/142/96
f 26/68/64 96/66/62 73/69/65
f 49/143/94 73/140/65 19/142/96
f 8/144/91 97/67/63 49/145/94
f 34/146/92 72/147/98 97/67/63
f 98/72/68 26/68/64 72/147/98
f 46/148/88 72/147/98 16/149/90
f 7/107/86 98/72/68 46/148/88
f 28/1/1 2/150/82 41/2/2
f 76/4/4 32/76/72 3/5/5
f 77/7/7 35/151/74 4/8/8
f 78/10/10 42/152/80 1/11/11
f 79/13/13 45/85/6 3/14/5
f 80/16/15 43/87/79 6/17/16
f 51/19/18 11/73/69 29/20/19
f 52/22/21 21/74/70 53/23/22
f 40/25/24 10/153/83 54/26/25
f 55/28/27 15/75/71 33/29/28
f 85/31/30 56/105/85 22/32/31
f 86/34/33 44/154/87 14/35/34
f 87/37/36 59/77/73 18/38/37
f 88/40/38 60/115/89 23/41/39
f 89/43/41 47/155/93 17/44/42
f 63/46/44 20/81/75 38/47/45
f 64/49/47 24/82/76 65/50/48
f 30/52/50 12/83/77 66/53/51
f 67/55/53 18/84/37 48/56/9
f 94/58/55 68/134/97 25/59/56
f 33/61/28 15/156/71 70/62/58
f 71/64/60 9/86/78 39/65/61
f 97/67/63 72/147/98 26/68/64
f 31/70/66 13/157/84 74/71/67
f 75/3/3 41/2/2 11/73/69
f 54/26/25 75/3/3 51/19/18
f 54/26/25 10/153/83 28/1/1
f 55/28/27 76/4/4 45/6/6
f 22/32/31 58/36/35 76/4/4
f 58/36/35 14/35/34 32/76/72
f 59/77/73 77/79/7 48/78/9
f 23/41/39 62/45/43 77/79/7
f 62/45/43 17/44/42 35/80/74
f 63/46/44 78/10/10 50/12/12
f 66/53/51 78/10/10 63/46/44
f 12/83/77 42/152/80 78/10/10
f 67/55/53 79/13/13 36/15/14
f 25/59/56 70/62/58 79/13/13
f 70/62/58 15/156/71 45/85/6
f 71/64/60 80/16/15 27/18/17
f 26/68/64 74/71/67 80/16/15
f 74/71/67 13/157/84 43/87/79
f 81/21/20 29/20/19 1/88/11
f 53/23/22 81/21/20 42/89/80
f 21/74/70 51/19/18 81/21/20
f 82/24/23 53/23/22 12/90/77
f 5/92/81 39/94/61 82/24/23
f 9/93/78 52/22/21 82/24/23
f 83/27/26 54/26/25 21/74/70
f 27/18/17 83/96/26 52/95/21
f 6/17/16 40/102/24 83/96/26
f 28/97/1 84/30/29 33/29/28
f 57/33/32 84/30/29 28/97/1
f 57/33/32 22/32/31 55/28/27
f 40/100/24 85/31/30 57/33/32
f 6/17/16 43/87/79 85/101/30
f 13/103/84 56/105/85 85/31/30
f 56/105/85 86/34/33 58/36/35
f 31/106/66 86/34/33 56/105/85
f 7/107/86 44/158/87 86/108/33
f 87/37/36 36/39/14 3/109/5
f 14/111/34 61/42/40 87/37/36
f 61/42/40 23/41/39 59/77/73
f 44/112/87 88/40/38 61/42/40
f 7/113/86 46/114/88 88/40/38
f 46/114/88 16/116/90 60/115/89
f 60/115/89 89/43/41 62/45/43
f 16/116/90 34/118/92 89/43/41
f 8/117/91 47/155/93 89/43/41
f 35/119/74 90/159/46 38/120/45
f 17/122/42 65/50/48 90/48/46
f 24/82/76 63/46/44 90/48/46
f 47/124/93 91/51/49 65/50/48
f 49/125/94 91/51/49 47/124/93
f 49/125/94 19/128/96 64/49/47
f 92/54/52 66/53/51 24/82/76
f 37/127/95 92/54/52 64/49/47
f 5/129/81 30/52/50 92/54/52
f 93/57/54 48/56/9 4/121/8
f 69/60/57 93/57/54 38/120/45
f 25/59/56 67/55/53 93/57/54
f 50/131/12 94/58/55 69/60/57
f 1/132/11 29/133/19 94/58/55
f 29/133/19 11/135/69 68/134/97
f 95/63/59 70/62/58 25/59/56
f 11/135/69 41/137/2 95/63/59
f 2/136/82 33/61/28 95/63/59
f 96/66/62 39/65/61 5/138/81
f 73/140/65 96/160/62 37/141/95
f 26/68/64 71/64/60 96/66/62
f 49/143/94 97/161/63 73/140/65
f 8/144/91 34/146/92 97/67/63
f 34/146/92 16/149/90 72/147/98
f 98/72/68 74/71/67 26/68/64
f 46/148/88 98/72/68 72/147/98
f 7/107/86 31/70/66 98/72/68
