# Blender v2.78 (sub 0) OBJ File: 'terrain2.blend'
# www.blender.org
mtllib ocean.mtl
o Circle
v 0.000000 -0.234002 -26.542084
v -5.178094 -0.234002 -26.032089
v -10.157232 -0.234002 -24.521692
v -14.745967 -0.234002 -22.068932
v -18.768124 -0.234002 -18.768087
v -22.068958 -0.234002 -14.745983
v -24.521656 -0.234002 -10.157207
v -26.032053 -0.234002 -5.178100
v -26.542099 -0.234002 0.000005
v -26.032053 -0.234002 5.178100
v -24.521656 -0.234002 10.157217
v -22.068958 -0.234002 14.745994
v -18.768124 -0.234002 18.768087
v -14.745967 -0.234002 22.068932
v -10.157232 -0.234002 24.521692
v -5.178094 -0.234002 26.032089
v 0.000000 -0.234002 26.542084
v 5.178094 -0.234002 26.032089
v 10.157232 -0.234002 24.521683
v 14.746052 -0.234002 22.068932
v 18.768124 -0.234002 18.768087
v 22.068958 -0.234002 14.745973
v 24.521740 -0.234002 10.157195
v 26.032053 -0.234002 5.178079
v 26.542099 -0.234002 -0.000026
v 26.032053 -0.234002 -5.178131
v 24.521656 -0.234002 -10.157248
v 22.068958 -0.234002 -14.746015
v 18.768124 -0.234002 -18.768108
v 14.745967 -0.234002 -22.068953
v 10.157232 -0.234002 -24.521704
v 5.178010 -0.234002 -26.032089
vn 0.0000 1.0000 0.0000
usemtl None
s off
f 24//1 32//1 7//1
f 1//1 2//1 4//1
f 3//1 4//1 2//1
f 5//1 6//1 4//1
f 7//1 8//1 10//1
f 9//1 10//1 8//1
f 11//1 12//1 13//1
f 13//1 14//1 11//1
f 15//1 16//1 14//1
f 17//1 18//1 19//1
f 19//1 20//1 21//1
f 21//1 22//1 19//1
f 23//1 24//1 22//1
f 25//1 26//1 24//1
f 27//1 28//1 29//1
f 29//1 30//1 27//1
f 31//1 32//1 30//1
f 1//1 4//1 32//1
f 6//1 7//1 4//1
f 10//1 24//1 7//1
f 14//1 16//1 17//1
f 17//1 19//1 24//1
f 22//1 24//1 19//1
f 26//1 27//1 24//1
f 30//1 32//1 27//1
f 4//1 7//1 32//1
f 11//1 14//1 24//1
f 17//1 24//1 14//1
f 27//1 32//1 24//1
f 10//1 11//1 24//1
